<?xml version="1.0" encoding="utf-8"?>
<!-- Generator: Adobe Illustrator 23.0.0, SVG Export Plug-In . SVG Version: 6.00 Build 0)  -->
<svg version="1.1" xmlns="http://www.w3.org/2000/svg" xmlns:xlink="http://www.w3.org/1999/xlink" x="0px" y="0px"
	 viewBox="0 0 242.7 90.8" style="enable-background:new 0 0 242.7 90.8;" xml:space="preserve">
<style type="text/css">
	.st0{display:none;}
	.st1{display:inline;}
	.st2{fill:url(#SVGID_1_);}
	.st3{fill:url(#SVGID_2_);}
	.st4{fill:url(#SVGID_3_);}
	.st5{fill:#005E8A;}
</style>
<g id="Camada_2" class="st0">
	<g id="kGwEMM.tif" class="st1">
		
			<image style="overflow:visible;" width="316" height="101" id="Layer_0_1_" xlink:href="ACFFA0AD.png"  transform="matrix(10.1414 0 0 10.1414 -1297.6783 -456.2141)">
		</image>
	</g>
</g>
<g id="Layer_1">
	<g>
		<linearGradient id="SVGID_1_" gradientUnits="userSpaceOnUse" x1="21.1081" y1="39.3209" x2="68.4724" y2="39.3209">
			<stop  offset="0" style="stop-color:#8BC53F"/>
			<stop  offset="1" style="stop-color:#00ADEE"/>
		</linearGradient>
		<path class="st2" d="M28.4,47.2V3.7h-7.3v43.4c0,27.8,27.7,27.7,27.7,27.7h19.6v-7.3H48.8C28.4,67.6,28.4,47.2,28.4,47.2z"/>
		<linearGradient id="SVGID_2_" gradientUnits="userSpaceOnUse" x1="33.5724" y1="32.6946" x2="68.3564" y2="32.6946">
			<stop  offset="0" style="stop-color:#8BC53F"/>
			<stop  offset="1" style="stop-color:#00ADEE"/>
		</linearGradient>
		<path class="st3" d="M40.9,59.2c4.3,3,9.5,2.5,9.5,2.5h4.2l13.8,0c0,0,0,0,0,0l0,0v-7.3H55.5c-0.6,0-0.9,0-0.9,0h-3h-1.2h-0.7
			c-8.7-0.1-8.8-8.3-8.8-8.3v-2.5v-35c0-2.7-2.2-4.8-4.8-4.8h-2.5v39.8C33.6,52.1,36.5,56.2,40.9,59.2z"/>
		<linearGradient id="SVGID_3_" gradientUnits="userSpaceOnUse" x1="9.1656" y1="45.3328" x2="68.4724" y2="45.3328">
			<stop  offset="0" style="stop-color:#8BC53F"/>
			<stop  offset="1" style="stop-color:#00ADEE"/>
		</linearGradient>
		<path class="st4" d="M16.5,47.2V3.7H9.2v43.4c0,39.7,39.7,39.8,39.7,39.8h14c3.1,0,5.6-2.5,5.6-5.6v-1.7H48.8
			C16.4,79.6,16.5,47.2,16.5,47.2z"/>
	</g>
	<g>
		<g>
			<path class="st5" d="M77.2,44.9v-41h3.6v37.4h18.8v3.6H77.2z"/>
			<path class="st5" d="M114.2,3.9h3c1.5,3.5,3,6.9,4.5,10.3c1.5,3.4,3,6.8,4.5,10.2c1.5,3.4,3,6.8,4.4,10.2c1.5,3.4,3,6.8,4.5,10.3
				h-1.6c-0.7,0-1.3-0.2-1.9-0.6c-0.6-0.4-1-0.9-1.3-1.5l-3.3-7.6h-22.6l-3.3,7.6c-0.3,0.6-0.7,1.1-1.3,1.5
				c-0.6,0.4-1.2,0.6-1.9,0.6h-1.6L114.2,3.9z M106,31.6h19.4l-9.2-21c-0.1-0.2-0.2-0.5-0.3-0.7c-0.1-0.3-0.1-0.5-0.2-0.8
				c-0.1-0.3-0.1-0.6-0.1-0.9c0,0.3-0.1,0.6-0.1,0.9c0,0.2-0.1,0.5-0.2,0.8c-0.1,0.3-0.1,0.5-0.2,0.7L106,31.6z"/>
			<path class="st5" d="M167.3,44.9h-3.5L139,9.5c-0.1-0.1-0.2-0.2-0.2-0.4c-0.1-0.2-0.1-0.3-0.2-0.5c-0.1-0.2-0.1-0.3-0.2-0.5v36.8
				h-3.6v-41h2.5c0.8,0,1.4,0.1,1.8,0.3c0.4,0.2,0.8,0.5,1.1,0.9l22.6,32.4c0.1,0.2,0.2,0.4,0.3,0.6c0.1,0.2,0.2,0.4,0.3,0.6
				c0.1,0.2,0.1,0.4,0.2,0.7V3.9h3.5V44.9z"/>
			<path class="st5" d="M174.1,24.4c0,1.6,0.2,3.1,0.6,4.6c0.4,1.5,1,2.9,1.8,4.2c0.8,1.3,1.7,2.5,2.7,3.5c1.1,1,2.2,2,3.5,2.7
				c1.3,0.8,2.7,1.3,4.1,1.8c1.5,0.4,3,0.6,4.6,0.6c1.8,0,3.6-0.3,5.3-0.8c1.7-0.5,3.2-1.3,4.6-2.2c0.3-0.2,0.6-0.3,0.9-0.4
				c0.3-0.1,0.6-0.1,1-0.1c0.6,0,1,0.1,1.4,0.3c0.4,0.2,0.8,0.4,1.1,0.8l0.3,0.3c-1.9,1.8-4.1,3.3-6.6,4.3c-2.5,1-5.1,1.6-8,1.6
				c-2.9,0-5.6-0.5-8.1-1.6c-2.5-1.1-4.8-2.6-6.6-4.5c-1.9-1.9-3.4-4.1-4.5-6.7c-1.1-2.5-1.6-5.3-1.6-8.2c0-2.9,0.5-5.6,1.6-8.2
				c1.1-2.5,2.6-4.8,4.5-6.7c1.9-1.9,4.1-3.4,6.6-4.5c2.5-1.1,5.2-1.6,8.1-1.6c2.9,0,5.5,0.5,8,1.6c2.5,1,4.6,2.5,6.5,4.3l-0.3,0.3
				c-0.3,0.3-0.7,0.6-1.1,0.8c-0.4,0.2-0.9,0.3-1.4,0.3c-0.7,0-1.3-0.2-1.8-0.6c-1.4-1-2.9-1.7-4.6-2.3c-1.7-0.5-3.4-0.8-5.3-0.8
				c-1.6,0-3.1,0.2-4.6,0.6c-1.5,0.4-2.9,1-4.1,1.8c-1.3,0.8-2.5,1.7-3.5,2.7c-1.1,1-2,2.2-2.7,3.5c-0.8,1.3-1.3,2.7-1.8,4.2
				C174.4,21.2,174.1,22.8,174.1,24.4z"/>
			<path class="st5" d="M233.6,44.9h-24.4v-41h24.4v3.6h-20.8v14.9h16.9V26h-16.9v15.3h20.8V44.9z"/>
		</g>
		<g>
			<path class="st5" d="M86,87h-8.8V48.4h15.1c1.5,0,2.8,0.2,4,0.6c1.2,0.4,2.3,0.9,3.3,1.5c1,0.6,1.9,1.4,2.6,2.3
				c0.8,0.9,1.4,1.8,1.9,2.8c0.5,1,0.9,2,1.2,3.1c0.3,1.1,0.4,2.1,0.4,3.1c0,1-0.1,2-0.3,3.1c-0.2,1-0.6,2-1.1,3
				c-0.5,1-1.1,1.9-1.9,2.8c-0.8,0.9-1.7,1.7-2.8,2.5L110,87h-7.3h-0.2c-0.2,0-0.4,0-0.8-0.1c-0.4-0.1-0.8-0.2-1.3-0.4
				c-0.5-0.2-1-0.5-1.5-0.9c-0.5-0.4-1-0.9-1.5-1.6l-6.5-8.7H86V87z M92.8,66.4c0.5,0,1.1-0.1,1.6-0.4c0.5-0.3,0.9-0.6,1.3-1
				c0.4-0.4,0.7-0.9,0.9-1.5c0.2-0.5,0.3-1.1,0.3-1.7c0-0.6-0.1-1.1-0.3-1.7c-0.2-0.5-0.5-1-0.9-1.5c-0.4-0.4-0.8-0.8-1.3-1
				c-0.5-0.3-1-0.4-1.6-0.4H86v9.1H92.8z"/>
			<path class="st5" d="M116.5,71.4c0,1,0.2,1.9,0.6,2.7c0.4,0.9,0.9,1.6,1.6,2.3c0.7,0.6,1.4,1.2,2.3,1.5c0.9,0.4,1.8,0.6,2.8,0.6
				s1.9-0.2,2.8-0.6c0.9-0.4,1.6-0.9,2.3-1.5c0.7-0.6,1.2-1.4,1.6-2.3c0.4-0.9,0.6-1.8,0.6-2.7v-23h8.8v23c0,2.2-0.4,4.3-1.3,6.2
				c-0.8,1.9-2,3.6-3.4,5c-1.5,1.4-3.2,2.6-5.1,3.4c-1.9,0.8-4,1.3-6.3,1.3c-1.5,0-2.9-0.2-4.2-0.6c-1.4-0.4-2.6-0.9-3.8-1.6
				c-1.2-0.7-2.3-1.5-3.3-2.5c-1-1-1.8-2-2.5-3.2c-0.7-1.2-1.2-2.4-1.6-3.8c-0.4-1.4-0.6-2.8-0.6-4.2v-23h8.8V71.4z"/>
			<path class="st5" d="M152.3,87h-8.8V48.4h15.1c1.5,0,2.8,0.2,4,0.6c1.2,0.4,2.3,0.9,3.3,1.5c1,0.6,1.9,1.4,2.6,2.3
				c0.8,0.9,1.4,1.8,1.9,2.8c0.5,1,0.9,2,1.2,3.1c0.3,1.1,0.4,2.1,0.4,3.1c0,1-0.1,2-0.3,3.1c-0.2,1-0.6,2-1.1,3
				c-0.5,1-1.1,1.9-1.9,2.8c-0.8,0.9-1.7,1.7-2.8,2.5L176.2,87h-7.3h-0.2c-0.2,0-0.4,0-0.8-0.1c-0.4-0.1-0.8-0.2-1.3-0.4
				c-0.5-0.2-1-0.5-1.5-0.9c-0.5-0.4-1-0.9-1.5-1.6l-6.5-8.7h-4.8V87z M159.1,66.4c0.5,0,1.1-0.1,1.6-0.4c0.5-0.3,0.9-0.6,1.3-1
				c0.4-0.4,0.7-0.9,0.9-1.5c0.2-0.5,0.3-1.1,0.3-1.7c0-0.6-0.1-1.1-0.3-1.7c-0.2-0.5-0.5-1-0.9-1.5c-0.4-0.4-0.8-0.8-1.3-1
				c-0.5-0.3-1-0.4-1.6-0.4h-6.8v9.1H159.1z"/>
			<path class="st5" d="M186.8,48.4h7.6L211.2,87h-5.7c-0.6,0-1.2-0.1-1.7-0.2c-0.5-0.2-1.1-0.4-1.5-0.7c-0.5-0.3-0.9-0.7-1.3-1.1
				c-0.4-0.4-0.7-0.9-0.9-1.4l-1.9-4.3h-15.3l-1.8,4.3c-0.2,0.5-0.5,0.9-0.9,1.3c-0.4,0.4-0.8,0.8-1.3,1.1c-0.5,0.3-1,0.6-1.6,0.7
				c-0.6,0.2-1.1,0.3-1.7,0.3h-5.7L186.8,48.4z M186.4,71.3h8.2l-3.4-8.1c-0.2-0.4-0.3-0.7-0.4-1c-0.1-0.3-0.2-0.6-0.2-0.9
				c-0.1-0.3-0.1-0.6-0.1-0.8c0,0.3-0.1,0.5-0.2,0.8c-0.1,0.3-0.1,0.5-0.2,0.9c-0.1,0.3-0.2,0.7-0.4,1L186.4,71.3z"/>
			<path class="st5" d="M209.6,87V48.4h8.8v30.3h15.2V87H209.6z"/>
		</g>
	</g>
</g>
</svg>
